<?xml version="1.0" encoding="utf-8"?>
<!-- Generator: Adobe Illustrator 19.1.0, SVG Export Plug-In . SVG Version: 6.00 Build 0)  -->
<svg version="1.1" xmlns="http://www.w3.org/2000/svg" xmlns:xlink="http://www.w3.org/1999/xlink" x="0px" y="0px"
	 viewBox="-96.4 267 514.7 267" style="enable-background:new -96.4 267 514.7 267;" xml:space="preserve">
<style type="text/css">
	.st0{fill:none;stroke:#CCCCCC;stroke-linecap:round;stroke-miterlimit:10;}
	.st1{fill:none;stroke:#CCCCCC;stroke-linecap:round;stroke-miterlimit:10;stroke-dasharray:1.000584e-02,2.0012;}
	.st2{fill:none;stroke:#CCCCCC;stroke-linecap:round;stroke-miterlimit:10;stroke-dasharray:1.003387e-02,2.0068;}
	.st3{fill:#FFFFFF;stroke:#15CCC2;stroke-width:4;stroke-miterlimit:10;}
	.st4{fill:none;stroke:#BBBBBB;stroke-linecap:round;stroke-miterlimit:10;}
	.st5{fill:none;stroke:#BBBBBB;stroke-linecap:round;stroke-miterlimit:10;stroke-dasharray:1.002738e-02,2.0055;}
	.st6{fill:none;stroke:#BBBBBB;stroke-linecap:round;stroke-miterlimit:10;stroke-dasharray:9.950245e-03,1.99;}
	.st7{fill:none;}
	.st8{fill:#939393;}
	.st9{font-family:'HelveticaNeue-Medium';}
	.st10{font-size:24px;}
	.st11{font-size:14px;}
	.st12{fill:#15CCC2;}
	.st13{display:none;}
	.st14{display:inline;}
	.st15{fill:none;stroke:#FF0000;stroke-width:2;stroke-miterlimit:10;}
	.st16{fill:#FF0000;}
	.st17{fill:#EA0000;}
	.st18{fill:none;stroke:#FFFFFF;stroke-width:6;stroke-linecap:round;stroke-linejoin:round;}
</style>
<g id="Background">
	<g id="Layer_2">
		<rect x="-96.4" y="267" width="514.7" height="267"/>
	</g>
</g>
<g id="Box">
	<g>
		<g>
			<line class="st0" x1="341" y1="520.5" x2="341" y2="520.5"/>
			<line class="st1" x1="339" y1="520.5" x2="-18" y2="520.5"/>
			<line class="st0" x1="-19" y1="520.5" x2="-19" y2="520.5"/>
			<line class="st2" x1="-19" y1="518.5" x2="-19" y2="281.5"/>
			<line class="st0" x1="-19" y1="280.5" x2="-19" y2="280.5"/>
			<line class="st1" x1="-17" y1="280.5" x2="340" y2="280.5"/>
			<line class="st0" x1="341" y1="280.5" x2="341" y2="280.5"/>
			<line class="st2" x1="341" y1="282.5" x2="341" y2="519.5"/>
		</g>
	</g>
	<rect x="6" y="310.5" class="st3" width="310" height="180"/>
	<g>
		<g>
			<line class="st4" x1="291" y1="460.5" x2="291" y2="460.5"/>
			<line class="st5" x1="289" y1="460.5" x2="32" y2="460.5"/>
			<line class="st4" x1="31" y1="460.5" x2="31" y2="460.5"/>
			<line class="st6" x1="31" y1="458.5" x2="31" y2="341.5"/>
			<line class="st4" x1="31" y1="340.5" x2="31" y2="340.5"/>
			<line class="st5" x1="33" y1="340.5" x2="290" y2="340.5"/>
			<line class="st4" x1="291" y1="340.5" x2="291" y2="340.5"/>
			<line class="st6" x1="291" y1="342.5" x2="291" y2="459.5"/>
		</g>
	</g>
	<g>
		<rect x="24.6" y="386.8" class="st7" width="272.9" height="31.3"/>
		<text transform="matrix(1 0 0 1 116.7807 407.3921)" class="st8 st9 st10">Content</text>
	</g>
	<rect x="6" y="286.5" class="st7" width="310" height="16"/>
	<text transform="matrix(1 0 0 1 138.5654 298.5146)" class="st8 st9 st11">Margin</text>
	<rect x="6" y="317.5" class="st7" width="310" height="16"/>
	<text transform="matrix(1 0 0 1 134.0292 329.4653)" class="st8 st9 st11">Padding</text>
	<rect x="-5.9" y="293.4" class="st7" width="62.9" height="20.8"/>
	<text transform="matrix(1 0 0 1 3.3857 305.3885)" class="st12 st9 st11">Border</text>
</g>
<g id="Sizing_labels" class="st13">
	<g class="st14">
		<g>
			<line class="st15" x1="270.7" y1="504.3" x2="310" y2="504.3"/>
			<g>
				<path class="st16" d="M316,504.3c-2.8,1.1-6.4,2.9-8.5,4.8l1.7-4.8l-1.7-4.8C309.6,501.5,313.2,503.3,316,504.3z"/>
			</g>
		</g>
	</g>
	<g class="st14">
		<g>
			<line class="st15" x1="12" y1="504.3" x2="37" y2="504.3"/>
			<g>
				<path class="st16" d="M6,504.3c2.8,1.1,6.4,2.9,8.5,4.8l-1.7-4.8l1.7-4.8C12.4,501.5,8.8,503.3,6,504.3z"/>
			</g>
		</g>
	</g>
	<g class="st14">
		<rect x="10.6" y="498.2" class="st7" width="286.9" height="31.1"/>
		<text transform="matrix(1 0 0 1 39.9014 508.2158)" class="st16 st9 st11">Width (with box-sizing: border-box) </text>
		<rect x="10.6" y="498.2" class="st7" width="286.9" height="31.1"/>
		<text transform="matrix(1 0 0 1 39.9014 508.2158)" class="st17 st9 st11">Width (with box-sizing: border-box) </text>
	</g>
</g>
<g id="Default" class="st13">
	<g class="st14">
		<g>
			<line class="st15" x1="37" y1="439.5" x2="285" y2="439.5"/>
			<g>
				<path class="st16" d="M31,439.5c2.8,1.1,6.4,2.9,8.5,4.8l-1.7-4.8l1.7-4.8C37.4,436.6,33.8,438.4,31,439.5z"/>
			</g>
			<g>
				<path class="st16" d="M291,439.5c-2.8,1.1-6.4,2.9-8.5,4.8l1.7-4.8l-1.7-4.8C284.6,436.6,288.2,438.4,291,439.5z"/>
			</g>
		</g>
	</g>
	<g class="st14">
		<rect x="95.5" y="433.4" class="st7" width="117" height="31.1"/>
		<text transform="matrix(1 0 0 1 106.9395 443.3825)" class="st16 st9 st11">Width (default)</text>
		<rect x="95.5" y="433.4" class="st7" width="117" height="31.1"/>
		<text transform="matrix(1 0 0 1 106.9395 443.3825)" class="st18 st9 st11">Width (default)</text>
		<rect x="95.5" y="433.4" class="st7" width="117" height="31.1"/>
		<text transform="matrix(1 0 0 1 106.9395 443.3825)" class="st17 st9 st11">Width (default)</text>
	</g>
	<g class="st14">
		<g>
			<line class="st15" x1="297" y1="439.5" x2="312.5" y2="439.5"/>
			<g>
				<path class="st16" d="M291,439.5c2.8,1.1,6.4,2.9,8.5,4.8l-1.7-4.8l1.7-4.8C297.4,436.6,293.8,438.4,291,439.5z"/>
			</g>
			<g>
				<path class="st16" d="M318.5,439.5c-2.8,1.1-6.4,2.9-8.5,4.8l1.7-4.8l-1.7-4.8C312.1,436.6,315.7,438.4,318.5,439.5z"/>
			</g>
		</g>
	</g>
</g>
<g id="Width">
</g>
</svg>
