<?xml version="1.0" encoding="utf-8"?>
<!-- Generator: Adobe Illustrator 19.1.0, SVG Export Plug-In . SVG Version: 6.00 Build 0)  -->
<svg version="1.1" xmlns="http://www.w3.org/2000/svg" xmlns:xlink="http://www.w3.org/1999/xlink" x="0px" y="0px"
	 viewBox="0 0 800 375" style="enable-background:new 0 0 800 375;" xml:space="preserve">
<style type="text/css">
	.st0{fill:#FFBE57;}
	.st1{fill:#FFD599;}
	.st2{fill:#3A72C9;}
	.st3{fill:#5586D1;}
	.st4{fill:#6F9AD8;}
	.st5{fill:#8AADE0;}
	.st6{fill:#A4C1E7;}
	.st7{fill:#BFD5EF;}
	.st8{fill:none;}
	.st9{fill:#FFFFFF;}
	.st10{font-family:'HelveticaNeue-Medium';}
	.st11{font-size:19.8467px;}
	.st12{font-family:'HelveticaNeue-CondensedBlack';}
	.st13{font-size:24px;}
</style>
<g id="Layer_2">
	<rect width="800" height="375"/>
</g>
<g id="Layer_1">
	<g>
		<g>
			<g>
				<g>
					<path class="st0" d="M391.1,183.4L257,139.9c19.2-59.2,71.8-97.4,134.1-97.4V183.4z"/>
				</g>
			</g>
			<g>
				<g>
					<path class="st1" d="M391.1,183.4l-82.9,114c-50.4-36.6-70.4-98.4-51.2-157.6L391.1,183.4z"/>
				</g>
			</g>
			<g>
				<g>
					<path class="st2" d="M391.1,183.4l82.9,114c-50.4,36.6-115.3,36.6-165.7,0L391.1,183.4z"/>
				</g>
			</g>
			<g>
				<g>
					<path class="st3" d="M391.1,183.4L525.1,227c-9.6,29.6-26,52.2-51.2,70.5L391.1,183.4z"/>
				</g>
			</g>
			<g>
				<g>
					<path class="st4" d="M391.1,183.4l134.1-43.6c9.6,29.6,9.6,57.5,0,87.1L391.1,183.4z"/>
				</g>
			</g>
			<g>
				<g>
					<path class="st5" d="M391.1,183.4l114-82.9c9.2,12.6,15.2,24.5,20,39.3L391.1,183.4z"/>
				</g>
			</g>
			<g>
				<g>
					<path class="st6" d="M391.1,183.4l82.9-114c12.6,9.2,22,18.6,31.2,31.2L391.1,183.4z"/>
				</g>
			</g>
			<g>
				<g>
					<path class="st7" d="M391.1,183.4v-141c31.1,0,57.7,8.6,82.9,26.9L391.1,183.4z"/>
				</g>
			</g>
		</g>
		<g>
			<g>
			</g>
			<g>
			</g>
			<g>
			</g>
			<g>
			</g>
			<g>
			</g>
			<g>
			</g>
			<g>
			</g>
			<g>
			</g>
		</g>
	</g>
	<rect x="221.9" y="46.6" class="st8" width="89.4" height="26.8"/>
	<text transform="matrix(1 0 0 1 237.414 60.745)" class="st9 st10 st11">Online</text>
	<rect x="298.6" y="85.2" class="st8" width="54.7" height="23.6"/>
	<text transform="matrix(1 0 0 1 304.1366 102.3426)" class="st12 st13">20%</text>
	<rect x="269.6" y="208.7" class="st8" width="54.7" height="23.6"/>
	<text transform="matrix(1 0 0 1 275.0898 225.8821)" class="st12 st13">20%</text>
	<rect x="363.5" y="272.9" class="st8" width="54.7" height="23.6"/>
	<text transform="matrix(1 0 0 1 368.9951 290.0764)" class="st12 st13">20%</text>
	<rect x="448.8" y="236.4" class="st8" width="54.7" height="23.6"/>
	<text transform="matrix(1 0 0 1 454.302 253.5219)" class="st12 st13">10%</text>
	<rect x="394.1" y="72.5" class="st8" width="54.7" height="23.6"/>
	<text transform="matrix(1 0 0 1 399.6093 89.6675)" class="st12 st13">10%</text>
	<rect x="465.3" y="173.3" class="st8" width="54.7" height="23.6"/>
	<text transform="matrix(1 0 0 1 470.8062 190.4424)" class="st12 st13">10%</text>
	<rect x="464.7" y="125.3" class="st8" width="54.7" height="23.6"/>
	<text transform="matrix(1 0 0 1 476.4794 142.4144)" class="st12 st13">5%</text>
	<rect x="447.6" y="92" class="st8" width="54.7" height="23.6"/>
	<text transform="matrix(1 0 0 1 459.4083 109.1406)" class="st12 st13">5%</text>
	<rect x="168.2" y="247.6" class="st8" width="81.9" height="27.4"/>
	<text transform="matrix(1 0 0 1 180.2275 261.8135)" class="st9 st10 st11">In class</text>
	<rect x="434.5" y="21.1" class="st8" width="170.4" height="26"/>
	<text transform="matrix(1 0 0 1 434.51 35.2999)" class="st9 st10 st11">Exercises</text>
	<rect x="503.2" y="64.3" class="st8" width="135.6" height="20.9"/>
	<text transform="matrix(1 0 0 1 503.1801 78.4283)" class="st9 st10 st11">Project 1</text>
	<rect x="526" y="103" class="st8" width="107.5" height="22.3"/>
	<text transform="matrix(1 0 0 1 526.0165 117.1497)" class="st9 st10 st11">Project 2</text>
	<rect x="542.3" y="173.5" class="st8" width="96.5" height="23.5"/>
	<text transform="matrix(1 0 0 1 542.3387 187.6743)" class="st9 st10 st11">Project 3</text>
	<rect x="514.7" y="269" class="st8" width="135.6" height="20.9"/>
	<text transform="matrix(1 0 0 1 514.663 283.1433)" class="st9 st10 st11">Project 4</text>
	<rect x="298.6" y="336.4" class="st8" width="184.4" height="27"/>
	<text transform="matrix(1 0 0 1 334.0006 350.5978)" class="st9 st10 st11">Final project</text>
</g>
</svg>
