<?xml version="1.0" encoding="utf-8"?>
<!-- Generator: Adobe Illustrator 19.1.0, SVG Export Plug-In . SVG Version: 6.00 Build 0)  -->
<svg version="1.1" xmlns="http://www.w3.org/2000/svg" xmlns:xlink="http://www.w3.org/1999/xlink" x="0px" y="0px"
	 viewBox="-96.4 272.5 514.7 279" style="enable-background:new -96.4 272.5 514.7 279;" xml:space="preserve">
<style type="text/css">
	.st0{fill:#FFFFFF;}
	.st1{display:none;}
	.st2{display:inline;}
	.st3{fill:none;stroke:#FF0000;stroke-width:2;stroke-miterlimit:10;}
	.st4{fill:#FF0000;}
	.st5{display:inline;fill:#B7B7B7;}
	.st6{fill:#B7B7B7;}
	.st7{font-family:'HelveticaNeue-Medium';}
	.st8{font-size:14px;}
	.st9{display:inline;fill:#828282;}
	.st10{fill:#828282;}
	.st11{fill:none;stroke:#7C7C7C;stroke-width:2;stroke-miterlimit:10;}
	.st12{fill:#7C7C7C;}
	.st13{fill:#FFFF66;}
	.st14{opacity:0.4;}
	.st15{fill:none;stroke:#00FFFF;stroke-width:2;stroke-linecap:round;stroke-linejoin:round;stroke-miterlimit:10;}
	.st16{fill:none;}
	.st17{fill:#00FFFF;}
</style>
<g id="Background">
	<g id="Layer_2">
		<rect x="-96.4" y="272.5" width="514.7" height="279"/>
	</g>
</g>
<g id="Document">
	<rect x="1" y="277.4" class="st0" width="335.7" height="244.4"/>
</g>
<g id="Static" class="st1">
	<g class="st2">
		<g>
			<line class="st3" x1="14.6" y1="294.5" x2="4.8" y2="282.1"/>
			<g>
				<path class="st4" d="M1,277.4c2.6,1.6,6.2,3.2,9,3.7l-4.8,1.6l-2.7,4.3C2.7,284.2,1.9,280.3,1,277.4z"/>
			</g>
		</g>
	</g>
	<rect x="14.6" y="294.5" class="st5" width="48.6" height="50.5"/>
	<g class="st2">
		<g>
			<line class="st3" x1="14.6" y1="471.3" x2="4.8" y2="458.9"/>
			<g>
				<path class="st4" d="M1,454.2c2.6,1.6,6.2,3.2,9,3.7l-4.8,1.6l-2.7,4.3C2.7,460.9,1.9,457.1,1,454.2z"/>
			</g>
		</g>
	</g>
	<g class="st2">
		<g>
			<line class="st3" x1="14.6" y1="362.1" x2="4.8" y2="349.7"/>
			<g>
				<path class="st4" d="M1,345c2.6,1.6,6.2,3.2,9,3.7l-4.8,1.6l-2.7,4.3C2.7,351.7,1.9,347.9,1,345z"/>
			</g>
		</g>
	</g>
	<g class="st2">
		<rect x="14.6" y="362.1" class="st6" width="224.9" height="92.1"/>
		<text transform="matrix(1 0 0 1 226.644 450.5)" class="st7 st8">B</text>
	</g>
	<g class="st2">
		<g>
			<line class="st3" x1="28.2" y1="379.2" x2="18.4" y2="366.8"/>
			<g>
				<path class="st4" d="M14.6,362.1c2.6,1.6,6.2,3.2,9,3.7l-4.8,1.6l-2.7,4.3C16.3,368.8,15.5,365,14.6,362.1z"/>
			</g>
		</g>
	</g>
	<rect x="28.2" y="379.2" class="st9" width="48.6" height="50.5"/>
	<g class="st2">
		<g>
			<line class="st3" x1="90.4" y1="379.2" x2="80.5" y2="366.8"/>
			<g>
				<path class="st4" d="M76.8,362.1c2.6,1.6,6.2,3.2,9,3.7l-4.8,1.6l-2.7,4.3C78.5,368.8,77.7,365,76.8,362.1z"/>
			</g>
		</g>
	</g>
	<rect x="90.4" y="379.2" class="st9" width="48.6" height="50.5"/>
	<g class="st2">
		<g>
			<line class="st3" x1="151.4" y1="379.2" x2="141.5" y2="366.8"/>
			<g>
				<path class="st4" d="M137.8,362.1c2.6,1.6,6.2,3.2,9,3.7l-4.8,1.6l-2.7,4.3C139.5,368.8,138.7,365,137.8,362.1z"/>
			</g>
		</g>
	</g>
	<g class="st2">
		<rect x="14.6" y="294.5" class="st6" width="48.6" height="50.5"/>
		<text transform="matrix(1 0 0 1 49.6621 341.5)" class="st7 st8">A</text>
	</g>
	<g class="st2">
		<rect x="14.6" y="471.3" class="st6" width="121.8" height="39.5"/>
		<text transform="matrix(1 0 0 1 124.6982 506.7166)" class="st7 st8">F</text>
	</g>
	<text transform="matrix(1 0 0 1 62.3921 424.7166)" class="st2 st7 st8">C</text>
	<text transform="matrix(1 0 0 1 122.8921 424.7166)" class="st2 st7 st8">D</text>
	<g class="st2">
		<rect x="151.4" y="379.2" class="st10" width="48.6" height="50.5"/>
		<text transform="matrix(1 0 0 1 187.6802 424.7166)" class="st7 st8">E</text>
	</g>
</g>
<g id="Relative_no_offset">
	<g>
		<g>
			<line class="st11" x1="14.6" y1="294.5" x2="4.8" y2="282.1"/>
			<g>
				<path class="st12" d="M1,277.4c2.6,1.6,6.2,3.2,9,3.7l-4.8,1.6l-2.7,4.3C2.7,284.2,1.9,280.3,1,277.4z"/>
			</g>
		</g>
	</g>
	<rect x="14.6" y="294.5" class="st6" width="48.6" height="50.5"/>
	<g>
		<g>
			<line class="st11" x1="14.6" y1="471.3" x2="4.8" y2="458.9"/>
			<g>
				<path class="st12" d="M1,454.2c2.6,1.6,6.2,3.2,9,3.7l-4.8,1.6l-2.7,4.3C2.7,460.9,1.9,457.1,1,454.2z"/>
			</g>
		</g>
	</g>
	<g>
		<g>
			<line class="st11" x1="14.6" y1="362.1" x2="4.8" y2="349.7"/>
			<g>
				<path class="st12" d="M1,345c2.6,1.6,6.2,3.2,9,3.7l-4.8,1.6l-2.7,4.3C2.7,351.7,1.9,347.9,1,345z"/>
			</g>
		</g>
	</g>
	<g>
		<rect x="14.6" y="362.1" class="st6" width="224.9" height="92.1"/>
		<text transform="matrix(1 0 0 1 226.644 450.5)" class="st7 st8">B</text>
	</g>
	<g>
		<g>
			<line class="st11" x1="28.2" y1="379.2" x2="18.4" y2="366.8"/>
			<g>
				<path class="st12" d="M14.6,362.1c2.6,1.6,6.2,3.2,9,3.7l-4.8,1.6l-2.7,4.3C16.3,368.8,15.5,365,14.6,362.1z"/>
			</g>
		</g>
	</g>
	<rect x="28.2" y="379.2" class="st10" width="48.6" height="50.5"/>
	<g>
		<g>
			<line class="st3" x1="90.4" y1="379.2" x2="80.5" y2="366.8"/>
			<g>
				<path class="st4" d="M76.8,362.1c2.6,1.6,6.2,3.2,9,3.7l-4.8,1.6l-2.7,4.3C78.5,368.8,77.7,365,76.8,362.1z"/>
			</g>
		</g>
	</g>
	<rect x="90.4" y="379.2" class="st13" width="48.6" height="50.5"/>
	<g>
		<g>
			<line class="st11" x1="151.4" y1="379.2" x2="141.5" y2="366.8"/>
			<g>
				<path class="st12" d="M137.8,362.1c2.6,1.6,6.2,3.2,9,3.7l-4.8,1.6l-2.7,4.3C139.5,368.8,138.7,365,137.8,362.1z"/>
			</g>
		</g>
	</g>
	<g>
		<rect x="14.6" y="294.5" class="st6" width="48.6" height="50.5"/>
		<text transform="matrix(1 0 0 1 49.6621 341.5)" class="st7 st8">A</text>
	</g>
	<g>
		<rect x="14.6" y="471.3" class="st6" width="121.8" height="39.5"/>
		<text transform="matrix(1 0 0 1 124.6982 506.7166)" class="st7 st8">F</text>
	</g>
	<text transform="matrix(1 0 0 1 62.3921 424.7166)" class="st7 st8">C</text>
	<text transform="matrix(1 0 0 1 122.8921 424.7166)" class="st7 st8">D</text>
	<g>
		<rect x="151.4" y="379.2" class="st10" width="48.6" height="50.5"/>
		<text transform="matrix(1 0 0 1 187.6802 424.7166)" class="st7 st8">E</text>
	</g>
</g>
<g id="Relative" class="st1">
	<g class="st2">
		<rect x="14.6" y="362.1" class="st6" width="224.9" height="92.1"/>
		<text transform="matrix(1 0 0 1 226.644 450.5)" class="st7 st8">B</text>
	</g>
	<g class="st2">
		<rect x="14.6" y="294.5" class="st6" width="48.6" height="50.5"/>
		<text transform="matrix(1 0 0 1 49.6621 341.5)" class="st7 st8">A</text>
	</g>
	<g class="st2">
		<rect x="14.6" y="471.3" class="st6" width="121.8" height="39.5"/>
		<text transform="matrix(1 0 0 1 124.6982 506.7166)" class="st7 st8">F</text>
	</g>
	<g class="st2">
		<rect x="151.4" y="379.2" class="st10" width="48.6" height="50.5"/>
		<text transform="matrix(1 0 0 1 187.6802 424.7166)" class="st7 st8">E</text>
	</g>
	<g class="st2">
		<g>
			<line class="st11" x1="14.6" y1="294.5" x2="4.8" y2="282.1"/>
			<g>
				<path class="st12" d="M1,277.4c2.6,1.6,6.2,3.2,9,3.7l-4.8,1.6l-2.7,4.3C2.7,284.2,1.9,280.3,1,277.4z"/>
			</g>
		</g>
	</g>
	<g class="st2">
		<g>
			<line class="st11" x1="14.6" y1="471.3" x2="4.8" y2="458.9"/>
			<g>
				<path class="st12" d="M1,454.2c2.6,1.6,6.2,3.2,9,3.7l-4.8,1.6l-2.7,4.3C2.7,460.9,1.9,457.1,1,454.2z"/>
			</g>
		</g>
	</g>
	<g class="st2">
		<g>
			<line class="st11" x1="14.6" y1="362.1" x2="4.8" y2="349.7"/>
			<g>
				<path class="st12" d="M1,345c2.6,1.6,6.2,3.2,9,3.7l-4.8,1.6l-2.7,4.3C2.7,351.7,1.9,347.9,1,345z"/>
			</g>
		</g>
	</g>
	<g class="st2">
		<g>
			<line class="st11" x1="28.2" y1="379.2" x2="18.4" y2="366.8"/>
			<g>
				<path class="st12" d="M14.6,362.1c2.6,1.6,6.2,3.2,9,3.7l-4.8,1.6l-2.7,4.3C16.3,368.8,15.5,365,14.6,362.1z"/>
			</g>
		</g>
	</g>
	<g class="st2">
		<g>
			<line class="st11" x1="90.4" y1="379.2" x2="80.5" y2="366.8"/>
			<g>
				<path class="st12" d="M76.8,362.1c2.6,1.6,6.2,3.2,9,3.7l-4.8,1.6l-2.7,4.3C78.5,368.8,77.7,365,76.8,362.1z"/>
			</g>
		</g>
	</g>
	<g class="st2">
		<g>
			<line class="st11" x1="151.4" y1="379.2" x2="141.5" y2="366.8"/>
			<g>
				<path class="st12" d="M137.8,362.1c2.6,1.6,6.2,3.2,9,3.7l-4.8,1.6l-2.7,4.3C139.5,368.8,138.7,365,137.8,362.1z"/>
			</g>
		</g>
	</g>
	<g class="st2">
		<rect x="28.2" y="379.2" class="st10" width="48.6" height="50.5"/>
		<text transform="matrix(1 0 0 1 62.3921 424.7166)" class="st7 st8">C</text>
	</g>
	<g class="st2">
		<rect x="7.8" y="413.6" class="st13" width="48.6" height="50.5"/>
		<text transform="matrix(1 0 0 1 40.3013 459.1115)" class="st7 st8">D</text>
	</g>
	<g class="st2">
		<g>
			<line class="st3" x1="90.7" y1="379.2" x2="60.6" y2="409.3"/>
			<g>
				<path class="st4" d="M56.3,413.6c1.3-2.8,2.5-6.5,2.7-9.4l2.1,4.6l4.6,2.1C62.8,411.1,59.1,412.3,56.3,413.6z"/>
			</g>
		</g>
	</g>
</g>
<g id="Fixed" class="st1">
	<g class="st2">
		<rect x="14.6" y="362.1" class="st6" width="224.9" height="92.1"/>
		<text transform="matrix(1 0 0 1 226.644 450.5)" class="st7 st8">B</text>
	</g>
	<g class="st2">
		<rect x="14.6" y="294.5" class="st6" width="48.6" height="50.5"/>
		<text transform="matrix(1 0 0 1 49.6621 341.5)" class="st7 st8">A</text>
	</g>
	<g class="st2">
		<rect x="14.6" y="471.3" class="st6" width="121.8" height="39.5"/>
		<text transform="matrix(1 0 0 1 124.6982 506.7166)" class="st7 st8">F</text>
	</g>
	<g class="st2">
		<rect x="90.4" y="379.2" class="st10" width="48.6" height="50.5"/>
		<text transform="matrix(1 0 0 1 126.7186 424.7166)" class="st7 st8">E</text>
	</g>
	<g class="st2">
		<g>
			<line class="st11" x1="14.6" y1="294.5" x2="4.8" y2="282.1"/>
			<g>
				<path class="st12" d="M1,277.4c2.6,1.6,6.2,3.2,9,3.7l-4.8,1.6l-2.7,4.3C2.7,284.2,1.9,280.3,1,277.4z"/>
			</g>
		</g>
	</g>
	<g class="st2">
		<g>
			<line class="st11" x1="14.6" y1="471.3" x2="4.8" y2="458.9"/>
			<g>
				<path class="st12" d="M1,454.2c2.6,1.6,6.2,3.2,9,3.7l-4.8,1.6l-2.7,4.3C2.7,460.9,1.9,457.1,1,454.2z"/>
			</g>
		</g>
	</g>
	<g class="st2">
		<g>
			<line class="st11" x1="14.6" y1="362.1" x2="4.8" y2="349.7"/>
			<g>
				<path class="st12" d="M1,345c2.6,1.6,6.2,3.2,9,3.7l-4.8,1.6l-2.7,4.3C2.7,351.7,1.9,347.9,1,345z"/>
			</g>
		</g>
	</g>
	<g class="st2">
		<g>
			<line class="st11" x1="28.2" y1="379.2" x2="18.4" y2="366.8"/>
			<g>
				<path class="st12" d="M14.6,362.1c2.6,1.6,6.2,3.2,9,3.7l-4.8,1.6l-2.7,4.3C16.3,368.8,15.5,365,14.6,362.1z"/>
			</g>
		</g>
	</g>
	<g class="st2">
		<g>
			<line class="st11" x1="90.4" y1="379.2" x2="80.5" y2="366.8"/>
			<g>
				<path class="st12" d="M76.8,362.1c2.6,1.6,6.2,3.2,9,3.7l-4.8,1.6l-2.7,4.3C78.5,368.8,77.7,365,76.8,362.1z"/>
			</g>
		</g>
	</g>
	<g class="st2">
		<rect x="238.1" y="339.6" class="st13" width="48.6" height="50.5"/>
		<text transform="matrix(1 0 0 1 270.5847 385.1876)" class="st7 st8">D</text>
	</g>
	<g class="st2">
		<g>
			<line class="st3" x1="321" y1="305.3" x2="290.9" y2="335.4"/>
			<g>
				<path class="st4" d="M286.6,339.6c1.3-2.8,2.5-6.5,2.7-9.4l2.1,4.6l4.6,2.1C293.1,337.2,289.4,338.4,286.6,339.6z"/>
			</g>
		</g>
	</g>
	<g class="st2">
		<rect x="28.2" y="379.2" class="st10" width="48.6" height="50.5"/>
		<text transform="matrix(1 0 0 1 62.3921 424.7166)" class="st7 st8">C</text>
	</g>
</g>
<g id="Absolute" class="st1">
	<g class="st2">
		<rect x="14.6" y="362.1" class="st6" width="224.9" height="92.1"/>
		<text transform="matrix(1 0 0 1 226.644 450.5)" class="st7 st8">B</text>
	</g>
	<g class="st2">
		<rect x="14.6" y="294.5" class="st6" width="48.6" height="50.5"/>
		<text transform="matrix(1 0 0 1 49.6621 341.5)" class="st7 st8">A</text>
	</g>
	<g class="st2">
		<rect x="14.6" y="471.3" class="st6" width="121.8" height="39.5"/>
		<text transform="matrix(1 0 0 1 124.6982 506.7166)" class="st7 st8">F</text>
	</g>
	<g class="st2">
		<rect x="90.4" y="379.2" class="st10" width="48.6" height="50.5"/>
		<text transform="matrix(1 0 0 1 126.7186 424.7166)" class="st7 st8">E</text>
	</g>
	<g class="st2">
		<g>
			<line class="st11" x1="14.6" y1="294.5" x2="4.8" y2="282.1"/>
			<g>
				<path class="st12" d="M1,277.4c2.6,1.6,6.2,3.2,9,3.7l-4.8,1.6l-2.7,4.3C2.7,284.2,1.9,280.3,1,277.4z"/>
			</g>
		</g>
	</g>
	<g class="st2">
		<g>
			<line class="st11" x1="14.6" y1="471.3" x2="4.8" y2="458.9"/>
			<g>
				<path class="st12" d="M1,454.2c2.6,1.6,6.2,3.2,9,3.7l-4.8,1.6l-2.7,4.3C2.7,460.9,1.9,457.1,1,454.2z"/>
			</g>
		</g>
	</g>
	<g class="st2">
		<g>
			<line class="st11" x1="14.6" y1="362.1" x2="4.8" y2="349.7"/>
			<g>
				<path class="st12" d="M1,345c2.6,1.6,6.2,3.2,9,3.7l-4.8,1.6l-2.7,4.3C2.7,351.7,1.9,347.9,1,345z"/>
			</g>
		</g>
	</g>
	<g class="st2">
		<g>
			<line class="st11" x1="28.2" y1="379.2" x2="18.4" y2="366.8"/>
			<g>
				<path class="st12" d="M14.6,362.1c2.6,1.6,6.2,3.2,9,3.7l-4.8,1.6l-2.7,4.3C16.3,368.8,15.5,365,14.6,362.1z"/>
			</g>
		</g>
	</g>
	<g class="st2">
		<g>
			<line class="st11" x1="90.4" y1="379.2" x2="80.5" y2="366.8"/>
			<g>
				<path class="st12" d="M76.8,362.1c2.6,1.6,6.2,3.2,9,3.7l-4.8,1.6l-2.7,4.3C78.5,368.8,77.7,365,76.8,362.1z"/>
			</g>
		</g>
	</g>
	<g class="st2">
		<rect x="28.2" y="379.2" class="st10" width="48.6" height="50.5"/>
		<text transform="matrix(1 0 0 1 62.3921 424.7166)" class="st7 st8">C</text>
	</g>
	<g class="st2">
		<rect x="253.8" y="311.7" class="st13" width="48.6" height="50.5"/>
		<text transform="matrix(1 0 0 1 286.2839 357.2387)" class="st7 st8">D</text>
	</g>
	<g class="st2">
		<g>
			<line class="st3" x1="336.7" y1="277.3" x2="306.6" y2="307.4"/>
			<g>
				<path class="st4" d="M302.3,311.7c1.3-2.8,2.5-6.5,2.7-9.4l2.1,4.6l4.6,2.1C308.8,309.2,305.1,310.4,302.3,311.7z"/>
			</g>
		</g>
	</g>
</g>
<g id="Absolute_In_Relative" class="st1">
	<g class="st2">
		<rect x="14.6" y="362.1" class="st6" width="224.9" height="92.1"/>
		<text transform="matrix(1 0 0 1 226.644 450.5)" class="st7 st8">B</text>
	</g>
	<g class="st2">
		<rect x="14.6" y="294.5" class="st6" width="48.6" height="50.5"/>
		<text transform="matrix(1 0 0 1 49.6621 341.5)" class="st7 st8">A</text>
	</g>
	<g class="st2">
		<rect x="14.6" y="471.3" class="st6" width="121.8" height="39.5"/>
		<text transform="matrix(1 0 0 1 124.6982 506.7166)" class="st7 st8">F</text>
	</g>
	<g class="st2">
		<rect x="90.4" y="379.2" class="st10" width="48.6" height="50.5"/>
		<text transform="matrix(1 0 0 1 126.7186 424.7166)" class="st7 st8">E</text>
	</g>
	<g class="st2">
		<g>
			<line class="st11" x1="14.6" y1="294.5" x2="4.8" y2="282.1"/>
			<g>
				<path class="st12" d="M1,277.4c2.6,1.6,6.2,3.2,9,3.7l-4.8,1.6l-2.7,4.3C2.7,284.2,1.9,280.3,1,277.4z"/>
			</g>
		</g>
	</g>
	<g class="st2">
		<g>
			<line class="st11" x1="14.6" y1="471.3" x2="4.8" y2="458.9"/>
			<g>
				<path class="st12" d="M1,454.2c2.6,1.6,6.2,3.2,9,3.7l-4.8,1.6l-2.7,4.3C2.7,460.9,1.9,457.1,1,454.2z"/>
			</g>
		</g>
	</g>
	<g class="st2">
		<g>
			<line class="st3" x1="14.6" y1="362.1" x2="4.8" y2="349.7"/>
			<g>
				<path class="st4" d="M1,345c2.6,1.6,6.2,3.2,9,3.7l-4.8,1.6l-2.7,4.3C2.7,351.7,1.9,347.9,1,345z"/>
			</g>
		</g>
	</g>
	<g class="st2">
		<g>
			<line class="st11" x1="28.2" y1="379.2" x2="18.4" y2="366.8"/>
			<g>
				<path class="st12" d="M14.6,362.1c2.6,1.6,6.2,3.2,9,3.7l-4.8,1.6l-2.7,4.3C16.3,368.8,15.5,365,14.6,362.1z"/>
			</g>
		</g>
	</g>
	<g class="st2">
		<g>
			<line class="st11" x1="90.4" y1="379.2" x2="80.5" y2="366.8"/>
			<g>
				<path class="st12" d="M76.8,362.1c2.6,1.6,6.2,3.2,9,3.7l-4.8,1.6l-2.7,4.3C78.5,368.8,77.7,365,76.8,362.1z"/>
			</g>
		</g>
	</g>
	<g class="st2">
		<rect x="28.2" y="379.2" class="st10" width="48.6" height="50.5"/>
		<text transform="matrix(1 0 0 1 62.3921 424.7166)" class="st7 st8">C</text>
	</g>
	<g class="st2">
		<rect x="156.6" y="396.4" class="st13" width="48.6" height="50.5"/>
		<text transform="matrix(1 0 0 1 189.0847 441.914)" class="st7 st8">D</text>
	</g>
	<g class="st2">
		<g>
			<line class="st3" x1="239.5" y1="362" x2="209.4" y2="392.1"/>
			<g>
				<path class="st4" d="M205.1,396.4c1.3-2.8,2.5-6.5,2.7-9.4l2.1,4.6l4.6,2.1C211.6,393.9,207.9,395.1,205.1,396.4z"/>
			</g>
		</g>
	</g>
</g>
<g id="Viewport">
	<path class="st14" d="M-96.4,273v278.5h514.7V273H-96.4z M321,489.3H1V306h320V489.3z"/>
	<rect x="1" y="306" class="st15" width="320" height="183.3"/>
</g>
<g id="Labels">
	<rect x="258.1" y="493.6" class="st16" width="62.9" height="20.8"/>
	<text transform="matrix(1 0 0 1 263.9507 505.6477)" class="st17 st7 st8">Viewport</text>
	<g>
		<rect x="243.6" y="523.9" class="st16" width="93.1" height="22.9"/>
		<text transform="matrix(1 0 0 1 269.8082 535.909)" class="st0 st7 st8">Document</text>
	</g>
</g>
</svg>
