<?xml version="1.0" encoding="utf-8"?>
<!-- Generator: Adobe Illustrator 19.1.0, SVG Export Plug-In . SVG Version: 6.00 Build 0)  -->
<svg version="1.1" xmlns="http://www.w3.org/2000/svg" xmlns:xlink="http://www.w3.org/1999/xlink" x="0px" y="0px"
	 viewBox="-339 251 900 300" style="enable-background:new -339 251 900 300;" xml:space="preserve">
<style type="text/css">
	.st0{fill:#FFFFFF;}
	.st1{font-family:'HelveticaNeue-Medium';}
	.st2{font-size:28px;}
	.st3{fill:#FFBE57;}
	.st4{fill:none;}
	.st5{font-size:17px;}
	.st6{fill:none;stroke:#FFFFFF;stroke-width:2;stroke-miterlimit:10;}
	.st7{fill:none;stroke:#000000;stroke-width:12;}
	.st8{font-size:19px;}
</style>
<g id="Background_1_">
	<g id="Background">
		<rect x="-339" y="250" width="900" height="300"/>
	</g>
</g>
<g id="Layer_2">
</g>
<g id="Layer_3">
	<text transform="matrix(1 0 0 1 27.3288 348.9922)" class="st0 st1 st2">Sun.</text>
	<text transform="matrix(1 0 0 1 130.0699 348.9922)" class="st0 st1 st2">Mon.</text>
	<text transform="matrix(1 0 0 1 233.8472 348.9922)" class="st0 st1 st2">Tues.</text>
	<text transform="matrix(1 0 0 1 342.063 349.9922)" class="st0 st1 st2">Wed.</text>
	<text transform="matrix(1 0 0 1 -303.2386 348.9922)" class="st3 st1 st2">Thurs.</text>
	<text transform="matrix(1 0 0 1 441.4304 349.9922)" class="st3 st1 st2">Thurs.</text>
	<text transform="matrix(1 0 0 1 -176.8939 348.9922)" class="st0 st1 st2">Fri.</text>
	<text transform="matrix(1 0 0 1 -75.4271 348.9922)" class="st0 st1 st2">Sat.</text>
	<rect x="430.7" y="384.6" class="st4" width="93.9" height="48.4"/>
	<text transform="matrix(1 0 0 1 432.4446 399.1436)"><tspan x="0" y="0" class="st3 st1 st5">Project due </tspan><tspan x="27.9" y="20.4" class="st3 st1 st5">1pm</tspan></text>
	<rect x="101.7" y="384.6" class="st4" width="120.2" height="48.4"/>
	<text transform="matrix(1 0 0 1 111.0636 399.1436)"><tspan x="0" y="0" class="st3 st1 st5">Exercise due </tspan><tspan x="16.9" y="20.4" class="st3 st1 st5">11:30pm</tspan></text>
	<g>
		<g>
			<line class="st6" x1="-291.9" y1="465" x2="502.3" y2="465"/>
			<g>
				<polygon class="st0" points="-301.8,465 -287.8,470.7 -291.2,465 -287.8,459.3 				"/>
			</g>
			<g>
				<polygon class="st0" points="512.2,465 498.3,470.7 501.6,465 498.3,459.3 				"/>
			</g>
		</g>
	</g>
	<g>
		<rect x="5.5" y="454.7" class="st4" width="199.5" height="24.2"/>
		<text transform="matrix(1 0 0 1 17.9218 471.0228)" class="st7 st1 st8">Online conversation</text>
		<rect x="5.5" y="454.7" class="st4" width="199.5" height="24.2"/>
		<text transform="matrix(1 0 0 1 17.9218 471.0228)" class="st3 st1 st8">Online conversation</text>
	</g>
</g>
</svg>
