<?xml version="1.0" encoding="utf-8"?>
<!-- Generator: Adobe Illustrator 19.1.0, SVG Export Plug-In . SVG Version: 6.00 Build 0)  -->
<svg version="1.1" id="Layer_1" xmlns="http://www.w3.org/2000/svg" xmlns:xlink="http://www.w3.org/1999/xlink" x="0px" y="0px"
	 viewBox="0 0 100 100" style="enable-background:new 0 0 100 100;" xml:space="preserve">
<style type="text/css">
	.st0{fill:#FFFFFF;}
</style>
<rect width="100" height="100"/>
<g>
	<path class="st0" d="M84.6,36c3.8,0,7,1.3,9.7,4c2.6,2.7,3.9,6,3.9,10c0,4-1.3,7.3-3.9,10c-2.6,2.7-5.9,4-9.7,4h-0.9l0.4,0.5
		c1.4,1.4,2.5,2.9,3.2,4.4c0.7,1.6,1.1,3.3,1.1,5.1c0,4-1.4,7.4-4.2,10.1c-2.8,2.8-6.1,4.1-10.1,4.1c-1.8,0-3.6-0.4-5.3-1.1
		c-1.7-0.7-3.2-1.7-4.4-3l-0.4-0.5l0.1,0.6v0.4c0,3.7-1.4,6.8-4.1,9.5c-2.7,2.7-6,4-9.9,4c-3.9,0-7-1.1-9.3-3.4
		c-2.3-2.2-3.9-5.6-4.8-10.1l0.1-0.4v-0.6l-0.4,0.5c-1.3,1.3-2.8,2.3-4.5,3c-1.7,0.7-3.4,1.1-5.3,1.1c-3.9,0-7.3-1.4-10.1-4.1
		c-2.8-2.8-4.2-6.1-4.2-10.1c0-1.8,0.3-3.5,1.1-5.1c0.7-1.6,1.8-3,3.2-4.4l0.4-0.5h-0.9c-3.8,0-7-1.3-9.7-4s-3.9-6-3.9-10
		c0-3.9,1.3-7.3,3.9-10c2.6-2.7,5.9-4,9.7-4h0.9l-0.4-0.4c-1.4-1.4-2.5-2.9-3.2-4.5c-0.7-1.6-1.1-3.3-1.1-5.1c0-4,1.4-7.4,4.2-10.1
		c2.8-2.8,6.1-4.1,10.1-4.1c1.8,0,3.6,0.4,5.3,1.1c1.7,0.7,3.2,1.7,4.5,3l0.4,0.4l-0.1-0.5v-0.4c0-3.8,1.3-7,4-9.6
		c2.7-2.6,6-3.9,10-3.9c3.9,0,7,1.1,9.3,3.3c2.3,2.2,4,5.6,4.8,10.2l-0.1,0.4v0.5l0.4-0.4c1.3-1.3,2.7-2.3,4.4-3
		c1.7-0.7,3.5-1.1,5.3-1.1c3.9,0,7.3,1.4,10.1,4.2c2.8,2.8,4.2,6.1,4.2,10.1c0,1.8-0.4,3.5-1.1,5.1c-0.7,1.6-1.8,3.1-3.2,4.5
		L83.7,36H84.6z M35.1,55.4c0,0-0.1-0.2-0.2-0.6c-0.1-0.4-0.2-0.7-0.3-1c-4.4,1.1-7.9,2-10.4,2.5c-2.6,0.5-4.6,0.8-6.1,0.8
		c-2.5,0-4.6-0.6-6.1-1.9c-1.5-1.3-2.3-3-2.3-5.1c0-2.1,0.8-3.7,2.3-5c1.5-1.3,3.5-1.9,5.9-1.9c1.4,0,3.5,0.2,6,0.7
		c2.6,0.5,6.1,1.3,10.6,2.5c0.1-0.1,0.2-0.3,0.2-0.7c0.1-0.3,0.1-0.7,0.2-1c-4.4-1.9-8.1-3.3-11-4.1c-2.9-0.9-5.3-1.3-7.3-1.3
		c-3.5,0-6.4,1-8.6,3c-2.2,2-3.4,4.6-3.4,7.8c0,3.2,1.1,5.9,3.3,7.9c2.2,2,5.1,3,8.6,3c2.1,0,4.6-0.4,7.6-1.3
		C27.4,58.6,31,57.2,35.1,55.4z M43.4,35.7c-2.8-7.5-5.6-12.8-8.3-16c-2.7-3.2-5.8-4.8-9.2-4.8c-3,0-5.6,1.1-7.7,3.2
		c-2.1,2.1-3.2,4.7-3.2,7.9c0,3.4,1.6,6.4,4.7,9.1c3.2,2.7,8.5,5.5,16,8.4l0.8-1.6C29.8,38,25.3,35.1,23,32.9
		c-2.3-2.2-3.4-4.4-3.4-6.6c0-1.8,0.7-3.4,2-4.7c1.3-1.3,2.9-2,4.6-2c2.1,0,4.3,1.1,6.3,3.2c2.1,2.1,5.2,6.7,9.3,13.8L43.4,35.7z
		 M43.3,64.2c-0.2-0.1-0.4-0.2-0.7-0.3c-0.2-0.1-0.5-0.3-0.7-0.4c-4.2,7.1-7.3,11.6-9.4,13.7c-2.1,2.1-4.2,3.2-6.3,3.2
		c-1.8,0-3.3-0.7-4.6-2c-1.3-1.3-2-2.9-2-4.7c0-2.2,1.1-4.4,3.4-6.6c2.3-2.2,6.7-5.1,13.4-8.9l-0.8-1.6c-7.5,2.9-12.9,5.7-16,8.4
		c-3.2,2.7-4.7,5.7-4.7,9.1c0,3.1,1.1,5.7,3.2,7.8c2.1,2.1,4.7,3.2,7.7,3.2c3.4,0,6.5-1.6,9.2-4.8C37.8,77.1,40.5,71.7,43.3,64.2z
		 M62.4,50c0-3.4-1.2-6.3-3.6-8.7c-2.4-2.4-5.3-3.6-8.7-3.6c-3.5,0-6.5,1.2-8.9,3.6c-2.4,2.4-3.6,5.3-3.6,8.7c0,3.5,1.2,6.5,3.6,8.8
		c2.4,2.4,5.3,3.6,8.8,3.6c3.5,0,6.4-1.2,8.8-3.6C61.2,56.4,62.4,53.4,62.4,50z M60.8,15.7c-0.6-3.6-1.8-6.3-3.6-8.1
		c-1.8-1.8-4.2-2.7-7.2-2.7c-3.3,0-5.9,1.1-8,3.3c-2,2.2-3.1,5.1-3.1,8.6c0,1.9,0.4,4.4,1.3,7.4c0.9,3,2.3,6.7,4.2,11
		c0.3-0.1,0.5-0.2,0.8-0.3c0.2-0.1,0.6-0.2,1-0.3c-1.4-5.7-2.3-9.5-2.7-11.6c-0.4-2.1-0.6-3.7-0.6-5c0-2.5,0.7-4.4,2-5.9
		c1.3-1.5,3-2.3,5.1-2.3c2.1,0,3.8,0.8,5.1,2.3c1.3,1.5,2,3.5,2,5.9c0,1.4-0.2,3.2-0.7,5.4s-1.3,6-2.7,11.2c0.1,0,0.4,0.1,0.8,0.2
		c0.4,0.1,0.7,0.2,1,0.3c1.9-4.3,3.3-8,4.1-11c0.9-3,1.3-5.6,1.3-7.7V15.7z M44.5,64.8c-1.9,4.3-3.3,8-4.2,11
		c-0.9,3-1.3,5.5-1.3,7.4c0,3.6,1,6.4,3,8.6c2,2.2,4.6,3.3,7.9,3.3c3.2,0,5.9-1.1,8-3.3c2.1-2.2,3.1-5.1,3.1-8.6
		c0-1.9-0.4-4.2-1.3-7.1c-0.9-2.8-2.3-6.6-4.2-11.2c-0.3,0.1-0.8,0.3-1.5,0.5c-0.1,0-0.2,0.1-0.3,0.1C55.1,71,56,74.9,56.4,77
		c0.4,2.1,0.6,3.7,0.6,5c0,2.4-0.6,4.4-1.9,5.9c-1.3,1.5-3,2.3-5,2.3c-2.1,0-3.8-0.8-5.2-2.3c-1.3-1.5-2-3.5-2-5.9
		c0-1.4,0.2-3.3,0.7-5.6c0.5-2.3,1.4-5.9,2.7-10.9c-0.1,0-0.2,0-0.3-0.1C45.3,65.1,44.8,65,44.5,64.8z M64.3,43.4
		c7.5-2.9,12.9-5.7,16-8.4c3.1-2.7,4.7-5.7,4.7-9.1c0-3.1-1.1-5.7-3.2-7.8c-2.1-2.1-4.7-3.2-7.7-3.2c-3.4,0-6.5,1.6-9.2,4.8
		c-2.7,3.2-5.5,8.6-8.3,16.1c0.2,0.1,0.4,0.2,0.6,0.3c0.2,0.1,0.5,0.3,0.8,0.4c3.9-6.7,6.9-11.3,9.1-13.5c2.2-2.3,4.4-3.4,6.6-3.4
		c1.8,0,3.3,0.7,4.6,2c1.3,1.3,2,2.9,2,4.7c0,2.2-1.1,4.4-3.4,6.6c-2.3,2.2-6.7,5.1-13.4,8.9c0.2,0.4,0.4,0.6,0.5,0.9
		C64.1,42.9,64.2,43.2,64.3,43.4z M56.7,64.2c2.8,7.5,5.5,12.9,8.3,16.1c2.7,3.2,5.8,4.8,9.2,4.8c2.9,0,5.5-1.1,7.6-3.3
		c2.1-2.2,3.2-4.8,3.2-7.8c0-3.4-1.6-6.4-4.7-9.1c-3.1-2.7-8.5-5.5-16-8.4l-0.8,1.6c6.7,3.8,11.1,6.7,13.4,8.9
		c2.3,2.2,3.4,4.4,3.4,6.6c0,1.8-0.7,3.4-2,4.7c-1.3,1.3-2.9,2-4.7,2c-2.2,0-4.4-1.1-6.6-3.4c-2.2-2.3-5.2-6.8-9.1-13.5
		c-0.2,0.1-0.5,0.3-1.1,0.6C56.9,64.1,56.8,64.2,56.7,64.2z M64.9,55.4c4.3,1.9,7.9,3.3,10.9,4.2c3,0.9,5.4,1.3,7.5,1.3
		c3.6,0,6.4-1,8.6-3c2.2-2,3.3-4.6,3.3-7.9c0-3.2-1.1-5.8-3.4-7.8c-2.2-2-5.1-3-8.6-3c-1.9,0-4.4,0.4-7.3,1.3
		c-2.9,0.9-6.6,2.3-11,4.1c0,0.4,0.1,0.7,0.2,1c0.1,0.3,0.1,0.5,0.2,0.7c4.4-1.1,7.9-2,10.5-2.5c2.6-0.5,4.6-0.8,6.1-0.8
		c2.5,0,4.5,0.6,6,1.9c1.5,1.3,2.3,3,2.3,5s-0.8,3.7-2.3,5.1c-1.5,1.3-3.5,2-5.9,2c-1.5,0-3.6-0.3-6.2-0.8
		c-2.6-0.5-6.1-1.3-10.5-2.5c-0.2,0.4-0.3,0.7-0.4,1C64.9,55.1,64.9,55.3,64.9,55.4z"/>
</g>
<rect x="120.4" y="-22.3" style="fill:none;" width="413.6" height="135.8"/>
</svg>
